# AST/ASF file generated using VICON BodyLanguage
# -----------------------------------------------
:version 1.10
:name VICON
:units
  mass 1.0
  length 0.45
  angle deg
:documentation
   .ast/.asf automatically generated from VICON data using
   VICON BodyBuilder and BodyLanguage model FoxedUp or BRILLIANT.MOD
:root
   order TX TY TZ RX RY RZ
   axis XYZ
   position 0 0 0  
   orientation 0 0 0 
:bonedata
  begin
     id 1 
     name lhipjoint
     direction 0.522423 -0.726805 0.445902 
     length 2.25074 
     axis 0 0 0  XYZ
  end
  begin
     id 2 
     name lfemur
     direction 0.34202 -0.939693 0  
     length 6.54609  
     axis 0 0 20  XYZ
    dof rx ry rz
    limits (-160.0 20.0)
           (-70.0 70.0)
           (-60.0 70.0)
  end
  begin
     id 3 
     name ltibia
     direction 0.34202 -0.939693 0   
     length 7.7528   
     axis 0 0 20   XYZ
    dof rx
    limits (-10.0 170.0)
  end
  begin
     id 4 
     name lfoot
     direction 0.143696 -0.394801 0.90746   
     length 1.73269   
     axis -90 7.62852e-016 20   XYZ
    dof rx rz
    limits (-45.0 90.0)
           (-70.0 20.0)
  end
  begin
     id 5 
     name ltoes
     direction 1.53633e-011 -4.21912e-011 1   
     length 0.858383   
     axis -90 7.62852e-016 20   XYZ
    dof rx
    limits (-90.0 20.0)
  end
  begin
     id 6 
     name rhipjoint
     direction -0.515943 -0.73016 0.447961   
     length 2.2404  
     axis 0 0 0  XYZ 
  end
  begin
     id 7 
     name rfemur
     direction -0.34202 -0.939693 0   
     length 6.84377   
     axis 0 0 -20   XYZ
    dof rx ry rz
    limits (-160.0 20.0)
           (-70.0 70.0)
           (-70.0 60.0)
  end
  begin
     id 8 
     name rtibia
     direction -0.34202 -0.939693 0   
     length 7.57596   
     axis 0 0 -20   XYZ
    dof rx
    limits (-10.0 170.0)
 end
 begin
     id 9 
     name rfoot
     direction -0.0999372 -0.274575 0.956358   
     length 1.78783  
     axis -90 -7.62852e-016 -20   XYZ
    dof rx rz
    limits (-45.0 90.0)
           (-20.0 70.0)
  end
  begin
     id 10 
     name rtoes
     direction -1.53535e-011 -4.21895e-011 1   
     length 0.898614   
     axis -90 -7.62852e-016 -20   XYZ
    dof rx
    limits (-90.0 20.0)
  end
  begin
     id 11 
     name lowerback
     direction -0.011775 0.996164 -0.0867116   
     length 1.91499   
     axis 0 0 0   XYZ
    dof rx ry rz
    limits (-20.0 45.0)
           (-30.0 30.0)
           (-30.0 30.0)
  end
  begin
     id 12 
     name upperback
     direction -0.00189771 0.999673 -0.0254833   
     length 1.92213   
     axis 0 0 0   XYZ
    dof rx ry rz
    limits (-20.0 45.0)
           (-30.0 30.0)
           (-30.0 30.0)
  end
  begin
     id 13 
     name thorax
     direction 0.00335995 0.999878 0.0152401   
     length 1.93138   
     axis 0 0 0   XYZ
    dof rx ry rz
    limits (-20.0 45.0)
           (-30.0 30.0)
           (-30.0 30.0)
  end
  begin
     id 14 
     name lowerneck
     direction 0.00233191 0.998509 0.0545404   
     length 1.59408   
     axis 0 0 0   XYZ
    dof rx ry rz
    limits (-20.0 45.0)
           (-30.0 30.0)
           (-30.0 30.0)
  end
  begin
     id 15 
     name upperneck
     direction 0.07881 0.9956 -0.0506934   
     length 1.59344   
     axis 0 0 0   XYZ
    dof rx ry rz
    limits (-20.0 45.0)
           (-30.0 30.0)
           (-30.0 30.0)
  end
  begin
     id 16
     name head
     direction 0.0261681 0.999378 -0.0236299  
     length 1.60935  
     axis 0 0 0   XYZ
    dof rx ry rz
    limits (-20.0 45.0)
           (-30.0 30.0)
           (-30.0 30.0)
  end
  begin
     id 17 
     name lclavicle
     direction 0.96643 0.252035 0.0499195  
     length 3.82153  
     axis 0 0 0   XYZ
    dof ry rz
    limits (-20.0 10.0)
           (0.0 20.0)
  end
  begin
     id 18 
     name lhumerus
     direction 1 -4.48967e-011 -2.01614e-018   
     length 4.87796   
     axis 180 -30 -90   XYZ
    dof rx ry rz
    limits (-60.0 90.0)
           (-90.0 90.0)
           (-90.0 90.0)
  end
  begin
     id 19
     name lradius
     direction 1 -4.48958e-011 3.1409e-027   
     length 3.23169   
     axis 180 -30 -90   XYZ
    dof rx
    limits (-10.0 170.0)
  end
  begin
     id 20
     name lwrist
     direction 1 -4.48924e-011 1.0365e-027   
     length 1.61584   
     axis -2.56395e-016 90 90   XYZ
    dof ry
    limits (-180.0 0.0)
 end
  begin
     id 21 
     name lhand
     direction 1 -4.49055e-011 2.09488e-027   
     length 0.731324   
     axis -1.32723e-015 90 90   XYZ
    dof rx rz
    limits (-90.0 90.0)
           (-45.0 45.0)
  end
  begin
     id 22 
     name lfingers
     direction 1 -4.48935e-011 4.14981e-027   
     length 0.589612   
     axis -2.6545e-015 90 90   XYZ
    dof rx
    limits (0.0 90.0)
  end
  begin
     id 23
     name lthumb
     direction 0.707107 -6.35097e-011 0.707107   
     length 0.846569   
     axis -90 45 5.05613e-014   XYZ
    dof rx rz
    limits (-45.0 45.0)
           (-45.0 45.0)
  end
  begin
     id 24 
     name rclavicle
     direction -0.979337 0.201016 0.0221522   
     length 3.73827  
     axis 0 0 0   XYZ 
    dof ry rz
    limits (-10.0 20.0)
           (-20.0 0.0)
  end
  begin
     id 25 
     name rhumerus
     direction -1 -4.48971e-011 1.65907e-027  
     length 4.9143   
     axis 180 30 90   XYZ
    dof rx ry rz
    limits (-90.0 60.0)
           (-90.0 90.0)
           (-90.0 90.0)
  end
  begin
     id 26 
     name rradius
     direction -1 -4.4894e-011 2.17871e-028   
     length 3.29093   
     axis 180 30 90   XYZ
    dof rx
    limits (-10.0 170.0)
  end
  begin
     id 27 
     name rwrist
     direction -1 -4.48971e-011 1.04038e-027   
     length 1.64546   
     axis -2.56395e-016 -90 -90   XYZ
    dof ry
    limits (-180.0 0.0)
  end
  begin
     id 28
     name rhand
     direction -1 -4.49017e-011 2.08843e-027   
     length 0.54512   
     axis -1.32723e-015 -90 -90   XYZ
    dof rx rz
    limits (-90.0 90.0)
           (-45.0 45.0)
  end
  begin
     id 29
     name rfingers
     direction -1 -4.48918e-011 4.1439e-027   
     length 0.43949   
     axis -2.6545e-015 -90 -90   XYZ
    dof rx
    limits (0.0 90.0)
  end
  begin
     id 30
     name rthumb
     direction -0.707107 -6.35065e-011 0.707107   
     length 0.631022   
     axis -90 -45 -5.05613e-014   XYZ
    dof rx rz
    limits (-45.0 45.0)
           (-45.0 45.0)
  end
:hierarchy
  begin
    root lhipjoint rhipjoint lowerback
    lhipjoint lfemur
    lfemur ltibia
    ltibia lfoot
    lfoot ltoes
    rhipjoint rfemur
    rfemur rtibia
    rtibia rfoot
    rfoot rtoes
    lowerback upperback
    upperback thorax
    thorax lowerneck lclavicle rclavicle
    lowerneck upperneck
    upperneck head
    lclavicle lhumerus
    lhumerus lradius
    lradius lwrist
    lwrist lhand lthumb
    lhand lfingers
    rclavicle rhumerus
    rhumerus rradius
    rradius rwrist
    rwrist rhand rthumb
    rhand rfingers
  end

#!OML:ASF H:\BreakDance\Project 1\Capture day 1\Session 1\Male.ASF
:FULLY-SPECIFIED
:DEGREES
317
root 16.2908 16.4312 -4.32277 22.7393 -60.9321 -5.71135
lowerback -3.95226 0.368772 -9.81976
upperback 0.322055 0.976491 -4.13741
thorax 2.46799 0.345322 1.25542
lowerneck -0.914656 -10.6103 -8.11975
upperneck -4.95984 -13.9986 14.8456
head 0.355952 -7.1353 5.47213
rclavicle 5.32743e-014 -6.36111e-014
rhumerus -43.7285 12.7004 -92.2706
rradius 66.6485
rwrist -3.55441
rhand -7.892 -23.5138
rfingers 7.12502
rthumb 18.0128 -52.6997
lclavicle 5.32743e-014 -6.36111e-014
lhumerus -44.0692 11.6905 72.4534
lradius 44.7092
lwrist -3.53228
lhand -15.8366 -23.4248
lfingers 7.12502
lthumb 10.3578 6.30011
rfemur -25.4533 -8.60006 7.79641
rtibia 41.7153
rfoot -25.6166 -1.55613
rtoes 42.0812
lfemur -20.7299 -5.08921 -14.3058
ltibia 42.5889
lfoot -33.5531 -3.40454
ltoes -42.6171
318
root 16.2049 16.4253 -4.41577 22.9187 -63.1914 -6.12871
lowerback -3.60076 0.416049 -9.89866
upperback 0.340035 0.992002 -4.12657
thorax 2.28527 0.357052 1.30747
lowerneck -1.41999 -10.0833 -7.89695
upperneck -4.85805 -13.2706 14.5469
head 0.347633 -6.752 5.35969
rclavicle -1.51076e-014 -1.27222e-014
rhumerus -43.1605 13.4336 -92.2776
rradius 69.1263
rwrist -3.35004
rhand -8.49708 -23.1948
rfingers 7.12502
rthumb 17.4305 -52.4333
lclavicle -1.51076e-014 -1.27222e-014
lhumerus -42.9318 10.7741 74.2619
lradius 46.1805
lwrist -3.67239
lhand -15.8471 -23.6275
lfingers 7.12502
lthumb 10.3477 6.09794
rfemur -27.1709 -5.48513 6.99058
rtibia 41.3369
rfoot -27.1471 -1.74273
rtoes 41.702
lfemur -19.8932 -5.89394 -15.6209
ltibia 41.8268
lfoot -34.0166 -2.65341
ltoes -43.0422
319
root 16.122 16.4096 -4.50771 23.4328 -65.4434 -6.8661
lowerback -3.26196 0.464435 -9.90389
upperback 0.351376 1.0074 -4.07173
thorax 2.10309 0.370329 1.3647
lowerneck -1.95737 -9.52218 -7.56732
upperneck -4.74422 -12.4991 14.1233
head 0.331094 -6.34623 5.19397
rclavicle -2.14687e-014 -3.18055e-015
rhumerus -42.4699 14.2464 -92.2926
rradius 71.5141
rwrist -3.16168
rhand -9.00443 -22.8743
rfingers 7.12502
rthumb 16.9422 -52.1554
lclavicle -2.14687e-014 -3.18055e-015
lhumerus -41.785 9.88216 75.8168
lradius 47.7213
lwrist -3.94059
lhand -15.9292 -23.8758
lfingers 7.12502
lthumb 10.2685 5.85354
rfemur -29.0279 -2.18674 6.1895
rtibia 41.1104
rfoot -28.9048 -2.38473
rtoes 41.382
lfemur -19.1591 -6.57014 -16.8432
ltibia 41.0938
lfoot -34.4213 -1.2569
ltoes -43.0398
320
root 16.0408 16.3846 -4.59889 24.2747 -67.6034 -7.92342
lowerback -2.92863 0.496791 -9.86276
upperback 0.361907 1.0016 -3.97574
thorax 1.92525 0.373983 1.43809
lowerneck -2.45554 -8.9325 -7.09688
upperneck -4.6488 -11.6949 13.5531
head 0.286716 -5.92743 4.96659
rclavicle -1.59028e-015 1.43125e-014
rhumerus -41.6756 15.108 -92.3099
rradius 73.8023
rwrist -3.02182
rhand -9.43723 -22.5525
rfingers 7.12502
rthumb 16.5255 -51.8688
lclavicle -1.59028e-015 1.43125e-014
lhumerus -40.6256 9.02301 77.1063
lradius 49.2882
lwrist -4.33405
lhand -16.0453 -24.2308
lfingers 7.12502
lthumb 10.1565 5.50409
rfemur -30.9626 1.0907 5.40665
rtibia 41.0264
rfoot -30.8255 -3.41646
rtoes 41.2113
lfemur -18.5188 -6.94189 -17.9393
ltibia 40.4091
lfoot -34.7355 0.181468
ltoes -42.26
321
root 15.9612 16.3526 -4.68835 25.6163 -69.6819 -9.42227
lowerback -2.67376 0.508027 -9.77737
upperback 0.370344 0.978625 -3.82801
thorax 1.79108 0.368508 1.54095
lowerneck -2.903 -8.31529 -6.52271
upperneck -4.59517 -10.8601 12.8616
head 0.213839 -5.49752 4.69021
rclavicle 1.59028e-015 3.81667e-014
rhumerus -40.7564 16.0516 -92.3025
rradius 75.9832
rwrist -2.96919
rhand -9.86706 -22.2175
rfingers 7.12502
rthumb 16.1117 -51.5678
lclavicle 1.59028e-015 3.81667e-014
lhumerus -39.4271 8.24666 78.1519
lradius 50.8486
lwrist -4.81588
lhand -16.144 -24.7258
lfingers 7.12502
lthumb 10.0612 5.01367
rfemur -33.0033 4.03406 4.71177
rtibia 41.0267
rfoot -32.6959 -4.56746
rtoes 41.2018
lfemur -17.997 -6.89193 -18.8707
ltibia 39.7905
lfoot -34.9409 1.42688
ltoes -40.1291
322
root 15.8829 16.3148 -4.7758 27.4822 -71.5769 -11.4305
lowerback -2.46757 0.462199 -9.64333
upperback 0.413351 0.890453 -3.6042
thorax 1.72666 0.328314 1.69423
lowerneck -3.26568 -7.66681 -5.97367
upperneck -4.55189 -10.0085 11.7945
head 0.10899 -5.05947 4.77506
rclavicle -4.29375e-014 -3.49861e-014
rhumerus -39.6788 17.1297 -92.2389
rradius 78.0523
rwrist -3.00429
rhand -10.3525 -21.8692
rfingers 7.12502
rthumb 15.6442 -51.2567
lclavicle -4.29375e-014 -3.49861e-014
lhumerus -38.184 7.59715 78.9785
lradius 52.4113
lwrist -5.33111
lhand -16.1719 -25.3869
lfingers 7.12502
lthumb 10.0344 4.35387
rfemur -34.9934 6.31704 4.23227
rtibia 41.027
rfoot -34.291 -5.51504
rtoes 41.4208
lfemur -17.4979 -6.4572 -19.5876
ltibia 39.2408
lfoot -35.0895 2.57428
ltoes -36.4819
323
root 15.8073 16.2739 -4.85966 30.084 -73.2757 -14.1455
lowerback -2.31776 0.359777 -9.41563
upperback 0.486018 0.736824 -3.30638
thorax 1.73213 0.253898 1.87116
lowerneck -3.59224 -6.99085 -5.41569
upperneck -4.63415 -9.10009 11.1352
head -0.0141807 -4.60163 4.45913
rclavicle -2.8625e-014 6.67916e-014
rhumerus -38.4322 18.3505 -92.1147
rradius 80.0068
rwrist -3.09951
rhand -10.91 -21.5326
rfingers 7.12502
rthumb 15.1072 -50.9613
lclavicle -2.8625e-014 6.67916e-014
lhumerus -36.9127 7.07292 79.5874
lradius 53.9986
lwrist -5.83352
lhand -16.171 -26.1079
lfingers 7.12502
lthumb 10.0352 3.63283
rfemur -36.8782 7.47978 4.17707
rtibia 40.9528
rfoot -35.1676 -5.92416
rtoes 41.7282
lfemur -16.9987 -5.73277 -20.0514
ltibia 38.7617
lfoot -35.2985 3.90922
ltoes -31.663
324
root 15.7339 16.2334 -4.93899 33.4969 -74.7549 -17.6653
lowerback -2.16434 0.212578 -9.08121
upperback 0.583761 0.523984 -2.96416
thorax 1.76855 0.149894 2.03314
lowerneck -3.80837 -6.29278 -4.89365
upperneck -4.79971 -8.16535 10.5634
head -0.166414 -4.13682 4.18762
rclavicle -4.77083e-015 2.70347e-014
rhumerus -37.0286 19.6593 -91.9544
rradius 81.8482
rwrist -3.21596
rhand -11.5079 -21.2503
rfingers 7.12502
rthumb 14.5312 -50.7214
lclavicle -4.77083e-015 2.70347e-014
lhumerus -35.6443 6.61754 79.9489
lradius 55.6325
lwrist -6.27012
lhand -16.2217 -26.7487
lfingers 7.12502
lthumb 9.98628 2.9944
rfemur -38.5654 4.63219 5.52842
rtibia 40.7636
rfoot -32.9632 -4.30423
rtoes 41.2658
lfemur -16.4351 -4.86497 -20.2599
ltibia 38.3255
lfoot -35.67 5.57358
ltoes -26.5512
325
root 15.6662 16.1922 -5.01706 37.5067 -76.0106 -21.778
lowerback -1.95398 0.0287855 -8.71658
upperback 0.695748 0.256622 -2.62111
thorax 1.79337 0.0191825 2.17698
lowerneck -3.90534 -5.58009 -4.42003
upperneck -5.01893 -7.21342 10.1405
head -0.337329 -3.66903 3.98144
rclavicle 1.27222e-014 7.95139e-015
rhumerus -35.4836 20.9831 -91.7836
rradius 83.5575
rwrist -3.31631
rhand -12.1265 -21.0261
rfingers 7.12502
rthumb 13.9351 -50.5391
lclavicle 1.27222e-014 7.95139e-015
lhumerus -34.4118 6.1647 80.033
lradius 57.3244
lwrist -6.59565
lhand -16.3496 -27.281
lfingers 7.12502
lthumb 9.86292 2.46803
rfemur -40.0333 1.73044 7.23135
rtibia 40.4684
rfoot -30.3673 -2.91208
rtoes 40.8794
lfemur -15.8125 -3.99492 -20.2726
ltibia 37.9028
lfoot -36.2165 7.49086
ltoes -22.2684
326
root 15.6035 16.1508 -5.09678 41.6985 -77.0983 -26.0849
lowerback -1.64218 -0.175123 -8.4661
upperback 0.813387 -0.0457326 -2.31676
thorax 1.77057 -0.129299 2.34309
lowerneck -3.88092 -4.86309 -3.99302
upperneck -5.2542 -6.2567 9.88748
head -0.516997 -3.20357 3.8442
rclavicle 3.73715e-014 1.03368e-013
rhumerus -33.8196 22.2499 -91.6314
rradius 85.0868
rwrist -3.38317
rhand -12.8013 -20.8522
rfingers 7.12502
rthumb 13.2847 -50.4088
lclavicle 3.73715e-014 1.03368e-013
lhumerus -33.2411 5.66564 79.8261
lradius 59.0611
lwrist -6.8033
lhand -16.5532 -27.7338
lfingers 7.12502
lthumb 9.66643 2.02441
rfemur -41.3021 -1.21591 9.13124
rtibia 40.1102
rfoot -27.368 -1.802
rtoes 40.239
lfemur -15.1172 -3.18647 -20.1901
ltibia 37.4513
lfoot -36.8853 9.38481
ltoes -19.4859
327
root 15.5446 16.1107 -5.18104 45.9545 -78.1403 -30.456
lowerback -1.24224 -0.364402 -8.45639
upperback 0.916951 -0.334596 -2.07724
thorax 1.6843 -0.272265 2.57798
lowerneck -3.76335 -4.16055 -3.57907
upperneck -5.4485 -5.3211 9.76422
head -0.686513 -2.75157 3.75152
rclavicle 1.03368e-014 -3.81667e-014
rhumerus -32.0722 23.3936 -91.5318
rradius 86.391
rwrist -3.38733
rhand -13.5178 -20.7441
rfingers 7.12502
rthumb 12.594 -50.3445
lclavicle 1.03368e-014 -3.81667e-014
lhumerus -32.1549 5.09371 79.3249
lradius 60.8233
lwrist -6.89614
lhand -16.8271 -28.1448
lfingers 7.12502
lthumb 9.40213 1.62551
rfemur -42.458 -4.1372 11.1114
rtibia 39.7491
rfoot -24.0352 -0.839334
rtoes 39.1681
lfemur -14.3909 -2.40421 -20.0935
ltibia 36.9589
lfoot -37.5856 10.996
ltoes -18.4739
328
root 15.4869 16.0723 -5.27143 49.8497 -79.1086 -34.5131
lowerback -0.727109 -0.557279 -8.73273
upperback 1.02246 -0.638025 -1.89496
thorax 1.54255 -0.424711 2.91548
lowerneck -3.58569 -3.4912 -3.16297
upperneck -5.55963 -4.43259 9.7092
head -0.82941 -2.32365 3.67649
rclavicle -1.11319e-014 -4.77083e-015
rhumerus -30.2849 24.3778 -91.501
rradius 87.4345
rwrist -3.28978
rhand -14.209 -20.6918
rfingers 7.12502
rthumb 11.9276 -50.332
lclavicle -1.11319e-014 -4.77083e-015
lhumerus -31.1553 4.46925 78.5502
lradius 62.5723
lwrist -6.89123
lhand -17.1417 -28.5349
lfingers 7.12502
lthumb 9.09857 1.24887
rfemur -43.4682 -7.10046 13.1263
rtibia 39.4577
rfoot -20.5123 0.310567
rtoes 37.8767
lfemur -13.6096 -1.66922 -19.9973
ltibia 36.4315
lfoot -38.1951 12.1447
ltoes -18.9029
329
root 15.428 16.0357 -5.36804 53.9257 -80.0695 -38.7731
lowerback -0.212083 -0.727356 -9.26762
upperback 1.13111 -0.912405 -1.73473
thorax 1.41023 -0.566516 3.37768
lowerneck -3.34998 -2.86377 -2.75293
upperneck -5.60409 -3.60148 9.65207
head -0.952612 -1.92387 3.59671
rclavicle -2.38542e-015 1.59028e-014
rhumerus -28.4838 25.209 -91.5298
rradius 88.1743
rwrist -3.05832
rhand -14.8965 -20.6194
rfingers 7.12502
rthumb 11.2646 -50.297
lclavicle -2.38542e-015 1.59028e-014
lhumerus -30.2163 3.86848 77.5503
lradius 64.2363
lwrist -6.83792
lhand -17.448 -28.9287
lfingers 7.12502
lthumb 8.80307 0.867674
rfemur -44.424 -9.99544 15.1898
rtibia 39.2875
rfoot -16.958 1.94422
rtoes 36.8643
lfemur -12.82 -0.943319 -19.885
ltibia 35.9024
lfoot -38.645 12.8955
ltoes -20.2192
330
root 15.3669 15.9994 -5.46967 58.4963 -80.9757 -43.6027
lowerback 0.274792 -0.87661 -9.9778
upperback 1.27273 -1.15859 -1.56029
thorax 1.3359 -0.70005 3.95481
lowerneck -3.06261 -2.28259 -2.35754
upperneck -5.58919 -2.83334 9.52312
head -1.05819 -1.55321 3.49006
rclavicle -1.03368e-014 -2.38542e-014
rhumerus -26.699 25.8956 -91.6151
rradius 88.5692
rwrist -2.63092
rhand -15.5974 -20.4313
rfingers 7.12502
rthumb 10.5886 -50.1446
lclavicle -1.03368e-014 -2.38542e-014
lhumerus -29.3117 3.36792 76.3778
lradius 65.7345
lwrist -6.77251
lhand -17.7255 -29.3331
lfingers 7.12502
lthumb 8.53523 0.474371
rfemur -44.9937 -11.3014 16.6384
rtibia 39.3003
rfoot -14.6293 3.15443
rtoes 36.7352
lfemur -11.9725 -0.279442 -19.724
ltibia 35.4222
lfoot -38.9445 13.3977
ltoes -21.9328
331
root 15.3 15.9645 -5.57428 64.4168 -81.7908 -49.8317
lowerback 0.68115 -0.9852 -10.7182
upperback 1.42026 -1.3461 -1.37107
thorax 1.3136 -0.807917 4.5662
lowerneck -2.71262 -1.74719 -1.97933
upperneck -5.50018 -2.12811 9.30059
head -1.14307 -1.21032 3.35023
rclavicle 2.70347e-014 6.52014e-014
rhumerus -25.0303 26.398 -91.8138
rradius 88.6093
rwrist -1.93921
rhand -16.2958 -20.0642
rfingers 7.12502
rthumb 9.91474 -49.8108
lclavicle 2.70347e-014 6.52014e-014
lhumerus -28.4279 2.98756 75.0592
lradius 66.9736
lwrist -6.72252
lhand -17.9932 -29.7017
lfingers 7.12502
lthumb 8.27686 0.116119
rfemur -45.3395 -11.7095 17.7921
rtibia 39.5246
rfoot -13.0056 4.1394
rtoes 36.9004
lfemur -11.0944 0.349455 -19.4817
ltibia 35.045
lfoot -39.1721 13.8068
ltoes -23.7018
